<?xml version="1.0" standalone="no"?>
<!DOCTYPE svg PUBLIC "-//W3C//DTD SVG 1.1//EN" "http://www.w3.org/Graphics/SVG/1.1/DTD/svg11.dtd" >
<!--
2013-9-30: Created.
-->
<svg>
<metadata>
Created by iconfont
</metadata>
<defs>

<font id="fa" horiz-adv-x="1024" >
  <font-face
    font-family="fa"
    font-weight="500"
    font-stretch="normal"
    units-per-em="1024"
    ascent="896"
    descent="-128"
  />
    <missing-glyph />
    
    <glyph glyph-name="check-circle" unicode="&#59057;" d="M464.247573 218.512156C474.214622 209.35099100000002 489.665824 209.798411 499.086059 219.52097100000003L798.905035 528.9621030000001C808.503379 538.868489 808.253662 554.680198 798.347275 564.278545 788.44089 573.87689 772.62918 573.627172 763.030833 563.720785L463.211857 254.27965400000005 498.050342 255.28846899999996 316.608838 422.059539C306.453342 431.393916 290.653675 430.728265 281.319298 420.572766 271.984922 410.417267 272.650573 394.617602 282.806071 385.283226L464.247573 218.512156ZM1024 384C1024 666.769792 794.769792 896 512 896 229.230208 896 0 666.769792 0 384 0 101.23020799999995 229.230208-128 512-128 629.410831-128 740.826187-88.33104600000001 830.768465-16.686661999999956 841.557579-8.092490999999995 843.33693 7.620766000000003 834.742758 18.409879000000046 826.148587 29.198990999999978 810.43533 30.978341999999998 799.646219 22.384173000000033 718.470035-42.277495000000044 618.001779-78.04878099999996 512-78.04878099999996 256.817504-78.04878099999996 49.951219 128.81750399999999 49.951219 384 49.951219 639.182496 256.817504 846.048781 512 846.048781 767.182496 846.048781 974.048781 639.182496 974.048781 384 974.048781 296.507166 949.714859 212.66323599999998 904.470807 140.039307 897.177109 128.33175700000004 900.755245 112.92820300000005 912.462793 105.63450699999999 924.170342 98.34080900000004 939.573897 101.91894200000002 946.867595 113.62649199999998 997.013826 194.11920399999997 1024 287.101621 1024 384Z"  horiz-adv-x="1024" />

    
    <glyph glyph-name="times-circle" unicode="&#58887;" d="M331.274 211.664c8.978-8.977 23.545-8.977 32.523 0l148.966 148.991 148.992-148.991c8.978-8.977 23.521-8.977 32.5 0 8.978 8.979 9.001 23.522 0 32.501L545.287 393.156l148.969 148.969c8.978 8.976 8.978 23.522 0 32.5-8.979 8.978-23.522 9-32.5 0l-148.992-148.97L363.797 574.646c-8.979 8.957-23.501 8.957-32.479 0-8.978-8.978-8.978-23.545 0-32.521l148.946-148.969L331.274 244.16499999999996C322.316 235.187 322.316 220.64300000000003 331.274 211.664zM949.233 385.705c0 241.061-195.408 436.468-436.47 436.468-241.061 0-436.468-195.407-436.468-436.468s195.407-436.469 436.468-436.469c98.961 0 189.572 33.667 262.79 89.153 3.006 3.409 4.983 7.766 4.983 12.658 0 10.683-8.666 19.348-19.35 19.348-5.544 0-10.482-2.2-14.006-5.927l-0.246 0c-65.519-48.211-146.164-77.075-233.743-77.075-218.282 0-395.261 177.004-395.261 395.26 0 218.302 176.979 395.258 395.261 395.258 218.3 0 395.258-176.956 395.258-395.258 0-66.664-15.645-129.421-44.821-184.545l0-0.314c-0.54-1.842-1.123-3.636-1.123-5.61 0-10.684 8.664-19.349 19.347-19.349 8.328 0 15.286 5.343 18.001 12.704l0-0.136C930.941 245.46699999999998 949.233 313.432 949.233 385.705z"  horiz-adv-x="1024" />

    
    <glyph glyph-name="mail" unicode="&#58896;" d="M896 672h-768c-70.592 0-128-57.408-128-128v-512c0-70.592 57.408-128 128-128h768c70.592 0 128 57.408 128 128v512c0 70.592-57.408 128-128 128zM896 608c6.272 0 11.904-1.856 17.6-3.584l-378.624-374.656c-12.416-12.416-33.6-12.416-46.144-0.064l-380.8 374.272c6.4 2.112 12.928 4.032 19.968 4.032h768zM960 32c0-35.328-28.672-64-64-64h-768c-35.264 0-64 28.672-64 64v512c0 4.032 1.536 7.488 2.304 11.264l377.664-371.2c18.752-18.432 43.328-27.712 67.968-27.712 24.704 0 49.344 9.344 68.096 27.904l377.28 373.312c0.96-4.48 2.688-8.768 2.688-13.568v-512z"  horiz-adv-x="1024" />

    
    <glyph glyph-name="print" unicode="&#59081;" d="M24.380952 630.113822 902.094615 630.113822C942.428977 630.113822 975.238095 597.096629 975.238095 556.514225L975.238095 116.552845 999.619049 141.00813 853.333333 141.00813 877.714285 116.552845 877.714285 214.373984 877.714285 238.829269 853.333333 238.829269 170.666667 238.829269 146.285714 238.829269 146.285714 214.373984 146.285714 116.552845 170.666667 141.00813 121.955642 141.00813C81.590725 141.00813 48.761905 174.028132 48.761905 214.607725L48.761905 654.569105 24.380952 630.113822 24.380952 630.113822ZM24.380952 679.02439 0 679.02439 0 654.569105 0 214.607725C0 147.045771 54.630068 92.097562 121.955642 92.097562L170.666667 92.097562 195.047619 92.097562 195.047619 116.552845 195.047619 214.373984 170.666667 189.918699 853.333333 189.918699 828.952382 214.373984 828.952382 116.552845 828.952382 92.097562 853.333333 92.097562 999.619049 92.097562 1024 92.097562 1024 116.552845 1024 556.514225C1024 624.07337 969.395277 679.02439 902.094615 679.02439L24.380952 679.02439 24.380952 679.02439ZM755.809523-103.544715 780.190477-79.089431 243.809523-79.089431 268.190477-103.544715 268.190477 119.674797C268.190477 133.181077 257.274752 144.130082 243.809523 144.130082 230.344297 144.130082 219.428572 133.181077 219.428572 119.674797L219.428572-103.544715C219.428572-117.050995 230.344297-128 243.809523-128L780.190477-128C793.655703-128 804.571428-117.050995 804.571428-103.544715L804.571428 119.674797C804.571428 133.181077 793.655703 144.130082 780.190477 144.130082 766.725248 144.130082 755.809523 133.181077 755.809523 119.674797L755.809523-103.544715ZM207.238095 458.926829 524.190477 458.926829 524.190477 507.837397 207.238095 507.837397 207.238095 458.926829 207.238095 458.926829ZM219.428572 654.569105 219.428572 850.211382 195.047619 825.756097 828.952382 825.756097 804.571428 850.211382 804.571428 654.569067 853.333333 654.569067 853.333333 850.211382 853.333333 874.666667 828.952382 874.666667 195.047619 874.666667 170.666667 874.666667 170.666667 850.211382 170.666667 654.569105 219.428572 654.569105 219.428572 654.569105Z"  horiz-adv-x="1024" />

    
    <glyph glyph-name="plus" unicode="&#59239;" d="M863.328 413.44l-317.344 1.12L545.984 733.184c0 17.664-14.336 32-32 32s-32-14.336-32-32l0-318.4L159.616 415.936c-0.032 0-0.064 0-0.096 0-17.632 0-31.936-14.24-32-31.904C127.424 366.36800000000005 141.728 352 159.392 351.93600000000004l322.592-1.152 0-319.168c0-17.696 14.336-32 32-32s32 14.304 32 32l0 318.944 317.088-1.12c0.064 0 0.096 0 0.128 0 17.632 0 31.936 14.24 32 31.904C895.264 399.008 880.96 413.376 863.328 413.44z"  horiz-adv-x="1024" />

    
    <glyph glyph-name="weixin" unicode="&#58938;" d="M795.362133 243.949867c18.683733 0 31.138133-12.456533 31.138133-31.137067 0-18.683733-12.455467-31.1392-31.138133-31.1392s-31.138133 12.456533-31.138133 31.1392C764.224 231.493333 776.679467 243.949867 795.362133 243.949867zM645.896533 212.8128c0-18.683733-12.455467-31.1392-31.138133-31.1392s-37.3664 12.456533-37.3664 31.1392c0 18.6816 12.455467 31.137067 31.138133 31.137067S645.896533 231.493333 645.896533 212.8128zM608.530133 536.654933c31.138133 0 56.050133-24.912 56.050133-49.821867 0-31.138133-24.910933-49.821867-56.050133-49.821867s-49.821867 24.910933-49.821867 49.821867S583.620267 536.654933 608.530133 536.654933zM315.826133 536.654933c31.1392 0 49.822933-24.912 49.822933-49.821867 0-31.138133-24.910933-49.821867-49.822933-49.821867-31.138133 0-49.821867 24.910933-49.821867 49.821867S284.688 536.654933 315.826133 536.654933zM427.9264 156.762667c0 143.237333 124.555733 255.336533 274.021333 255.336533 43.5936 0 87.188267-12.455467 124.554667-31.138133-12.455467 180.603733-180.603733 317.614933-379.8912 317.614933C241.093333 704.8032 72.945067 549.1104 72.945067 356.049067c0-80.96 31.138133-161.92 87.188267-217.970133L91.627733-11.387733l174.376533 62.277333c56.050133-18.683733 118.327467-37.3664 186.832-37.3664 6.228267 0 12.455467 0 18.683733 0C446.609067 57.118933 427.9264 106.939733 427.9264 156.762667L427.9264 156.762667zM508.8864-30.0704c-18.683733 0-37.3664-6.2272-56.050133-6.2272-62.277333 0-124.554667 12.456533-186.832 37.3664L10.666667-86.120533l99.643733 217.973333c-56.049067 68.504533-80.96 143.237333-80.96 224.197333 0 217.9712 186.832 392.347733 423.486933 392.347733 236.654933 0 423.488-174.376533 423.488-392.347733l0 0c62.277333-49.821867 105.870933-118.3264 105.870933-199.287467 0-49.822933-18.683733-99.643733-43.5936-143.239467L1013.333333-148.397867 820.274133-79.893333c-37.3664-18.6816-74.733867-24.910933-112.0992-24.910933C627.213867-98.574933 558.708267-73.665067 508.8864-30.0704L508.8864-30.0704zM701.946667 368.5056c-130.781867 0-230.426667-93.416533-230.426667-211.742933 0-118.327467 105.872-211.744 230.426667-211.744 37.3664 0 74.7328 12.456533 112.0992 24.910933l105.872-37.3664-37.365333 87.189333c31.138133 37.3664 56.049067 80.96 56.049067 130.782933C938.600533 275.089067 832.7296 368.5056 701.946667 368.5056L701.946667 368.5056z"  horiz-adv-x="1024" />

    
    <glyph glyph-name="lock" unicode="&#58941;" d="M928-120.032 928 360.016c0 33.104-26.624 60-59.424 60L273.984 420.016l0.304 25.44c0 161.632 98.896 274.56 240.56 274.56 103.696 0 196.096-60.176 241.216-157.072 6.96-15.008 24.608-21.44 39.552-14.352 14.848 7.04 21.184 24.912 14.16 39.904C754.816 706.56 641.84 780 514.848 780c-173.824 0-299.984-140.672-299.984-334.192l-0.32-25.808L155.44 420C122.624 420 96 393.12 96 360.016l0-480.048C96-153.104 122.624-180 155.44-180l713.136 0C901.376-180 928-153.104 928-120.032L928-120.032zM155.44 360.016l713.136 0 0-480.048L155.44-120.032 155.44 360.016 155.44 360.016z"  horiz-adv-x="1024" />

    
    <glyph glyph-name="forward" unicode="&#60127;" d="M62.317714-47.396570999999994q-10.825143-10.825143-18.285714-7.460571t-7.460571 18.285714l0 841.142857q0 14.848 7.460571 18.285714t18.285714-7.460571l405.723429-405.723429q4.534857-4.534857 7.460571-10.825143l0 405.723429q0 14.848 7.460571 18.285714t18.285714-7.460571l405.723429-405.723429q10.825143-10.825143 10.825143-25.746286t-10.825143-25.746286l-405.723429-405.723429q-10.825143-10.825143-18.285714-7.460571t-7.460571 18.285714l0 405.723429q-2.852571-5.705143-7.460571-10.825143z"  horiz-adv-x="1024" />

    
    <glyph glyph-name="upload" unicode="&#60615;" d="M768 54.85714299999995q0 14.848-10.825143 25.746286t-25.746286 10.825143-25.746286-10.825143-10.825143-25.746286 10.825143-25.746286 25.746286-10.825143 25.746286 10.825143 10.825143 25.746286zM914.285714 54.85714299999995q0 14.848-10.825143 25.746286t-25.746286 10.825143-25.746286-10.825143-10.825143-25.746286 10.825143-25.746286 25.746286-10.825143 25.746286 10.825143 10.825143 25.746286zM987.428571 182.85714299999995l0-182.857143q0-22.820571-16.018286-38.838857t-38.838857-16.018286l-841.142857 0q-22.820571 0-38.838857 16.018286t-16.018286 38.838857l0 182.857143q0 22.820571 16.018286 38.838857t38.838857 16.018286l244.004571 0q11.995429-32.036571 40.301714-52.589714t63.122286-20.553143l146.285714 0q34.889143 0 63.122286 20.553143t40.301714 52.589714l244.004571 0q22.820571 0 38.838857-16.018286t16.018286-38.838857zM801.718857 553.179429q-9.728-22.820571-33.718857-22.820571l-146.285714 0 0-256q0-14.848-10.825143-25.746286t-25.746286-10.825143l-146.285714 0q-14.848 0-25.746286 10.825143t-10.825143 25.746286l0 256-146.285714 0q-23.990857 0-33.718857 22.820571-9.728 22.308571 7.972571 39.424l256 256q10.313143 10.825143 25.746286 10.825143t25.746286-10.825143l256-256q17.700571-17.115429 7.972571-39.424z"  horiz-adv-x="1024" />

    
    <glyph glyph-name="info-circle" unicode="&#58957;" d="M512-128C228.266667-128 0 100.26666699999998 0 384S228.266667 896 512 896s512-228.266667 512-512S795.733333-128 512-128zM512 725.333333c-36.266667 0-64-27.733333-64-64s27.733333-64 64-64c36.266667 0 64 27.733333 64 64S548.266667 725.333333 512 725.333333zM576 448c0 36.266667-27.733333 64-64 64-36.266667 0-64-27.733333-64-64l0-341.333333c0-36.266667 27.733333-64 64-64 36.266667 0 64 27.733333 64 64L576 448z"  horiz-adv-x="1024" />

    
    <glyph glyph-name="baidu" unicode="&#59062;" d="M226.522 359.947c96.993 20.839 83.792 136.761 80.878 162.089-4.758 39.065-50.691 107.346-113.075 101.952-78.499-7.036-89.957-120.445-89.957-120.445C93.748 451.143 129.764 339.143 226.522 359.947zM329.512 158.39c-2.848-8.175-9.18-29.014-3.686-47.173 10.822-40.707 46.168-42.55 46.168-42.55l50.792 0L422.786 192.831 368.41 192.831C343.952 185.527 332.159 166.532 329.512 158.39zM406.537 554.334c53.572 0 96.859 61.646 96.859 137.9 0 76.12-43.287 137.767-96.859 137.767-53.472 0-96.892-61.646-96.892-137.767C309.645 615.981 353.065 554.334 406.537 554.334zM637.241 545.221c71.598-9.281 117.632 67.141 126.777 125.035 9.349 57.827-36.854 125.036-87.544 136.561-50.791 11.659-114.213-69.688-119.976-122.757C549.597 619.197 565.779 554.434 637.241 545.221zM812.666 204.826c0 0-110.761 85.701-175.425 178.305-87.645 136.593-212.177 81.011-253.822 11.558-41.478-69.452-106.106-113.375-115.286-125-9.314-11.458-133.813-78.666-106.173-201.423 27.64-122.69 124.7-120.345 124.7-120.345s71.53-7.036 154.519 11.524c83.021 18.428 154.484-4.59 154.484-4.59s193.919-64.929 246.988 60.072C895.655 139.963 812.666 204.826 812.666 204.826zM480.881 18.747 354.807 18.747c-54.443 10.855-76.12 48.044-78.867 54.343-2.68 6.433-18.125 36.317-9.951 87.109 23.52 76.12 90.627 81.614 90.627 81.614l67.107 0 0 82.485 57.157-0.871L480.88 18.747zM715.674 19.618l-145.07 0c-56.219 14.508-58.866 54.444-58.866 54.444L511.738 234.51l58.866 0.938 0-144.199c3.586-15.345 22.682-18.159 22.682-18.159l59.771 0L653.057 234.51l62.618 0L715.675 19.618zM921.051 447.994c0 27.708-23.018 111.13-108.385 111.13-85.501 0-96.925-78.732-96.925-134.382 0-53.136 4.489-127.313 110.695-124.935C932.677 302.154 921.051 420.119 921.051 447.994z"  horiz-adv-x="1024" />

    
    <glyph glyph-name="edit" unicode="&#58944;" d="M1062.01504 855.528832 963.208019 954.335808C946.526317 971.017536 923.42857 980 900.330829 980 875.949875 980 854.135341 971.017536 837.453632 954.335808L788.691731 905.573952 788.691731 905.573952 271.558899 388.441088C270.275686 387.157888 268.99248 385.874688 268.99248 384.591488 268.99248 384.591488 268.99248 383.308288 267.709274 383.308288 266.426067 382.025088 266.426067 380.741824 265.142854 379.458624 265.142854 379.458624 265.142854 379.458624 265.142854 378.175424 265.142854 376.892224 265.142854 376.892224 263.859648 375.609024L193.283206 117.684224C190.716794 108.70176 193.283206 98.436096 199.699251 92.020032 204.832083 86.887232 211.248122 84.320832 218.947366 84.320832 221.513786 84.320832 224.080198 84.320832 225.363411 85.604032L484.57143 157.46368C485.854637 157.46368 485.854637 157.46368 487.137843 158.74688L488.42105 158.74688C489.704262 158.74688 490.987469 160.03008 492.270675 161.31328 492.270675 161.31328 493.553882 161.31328 493.553882 162.59648 494.837094 163.87968 496.120301 163.87968 497.403507 165.16288L1013.253133 681.012544 1062.01504 729.774464C1096.661651 763.137856 1096.661651 820.882176 1062.01504 855.528832L1062.01504 855.528832ZM317.754387 166.446144 274.125312 210.0752 303.639098 319.14784 426.827066 195.959872 317.754387 166.446144 317.754387 166.446144ZM328.020051 370.47616 806.65664 849.112768 819.488723 836.280704 863.117792 792.651648 384.481203 314.01504 328.020051 370.47616 328.020051 370.47616ZM478.155386 220.340864 421.694234 276.801984 900.330829 755.438592 956.791981 698.977472 478.155386 220.340864 478.155386 220.340864ZM1023.518797 765.704256 994.005011 736.190464 843.869677 886.325824 874.666669 917.122816C881.082707 923.538816 890.065165 927.38848 900.330829 927.38848 910.596493 927.38848 919.57895 923.538816 925.994989 917.122816L1024.802003 818.315776C1037.634086 802.917312 1037.634086 779.81952 1023.518797 765.704256L1023.518797 765.704256ZM949.09273 503.929856C934.977446 503.929856 922.145363 492.380928 922.145363 476.982464L922.145363 45.824576C922.145363 24.010048 904.180448 6.04512 882.365914 6.04512L153.503757 6.04512C131.689222 6.04512 113.724314 24.010048 113.724314 45.824576L113.724314 775.96992C113.724314 797.784448 131.689222 815.749376 153.503757 815.749376L584.661651 815.749376C598.776941 815.749376 611.609024 827.29824 611.609024 842.696768 611.609024 858.095232 600.060147 869.644096 584.661651 869.644096L153.503757 869.644096C102.175437 869.644096 61.112781 828.58144 61.112781 777.25312L61.112781 48.390976C61.112781-2.937344 102.175437-44 153.503757-44L882.365914-44C933.694234-44 974.75689-2.937344 974.75689 48.390976L974.75689 476.982464C976.040102 491.097728 964.491226 503.929856 949.09273 503.929856L949.09273 503.929856Z"  horiz-adv-x="1089" />

    
    <glyph glyph-name="facebook" unicode="&#59092;" d="M672 704c-88.352 0-160-71.648-160-160l0-96-128 0 0-128 128 0 0-448 128 0 0 448 144 0 32 128-176 0 0 96c0 17.664 14.336 32 32 32l160 0 0 128-160 0z"  horiz-adv-x="1024" />

    
    <glyph glyph-name="alipay" unicode="&#58939;" d="M634.692878 293.296185c61.452607 111.732757 83.797521 217.870076 83.797521 217.870076l-11.174504 0 0 0-94.967932 0-100.555184 0 0 78.214363 245.802242 0 0 33.515325L511.793804 622.895949 511.793804 740.210841 400.066163 740.210841l0-117.314893L176.609859 622.895949l0-33.515325 223.455281 0 0-78.214363L210.126206 511.166261l0-33.517371 385.464095 0c0-5.587252 0-5.587252-5.588275-11.17041 0-39.104623-27.929096-94.972025-50.276057-139.66083-284.906865 111.728664-368.704386 44.688805-391.049301 33.517371-189.93484-134.072555-11.17041-301.665551 16.762779-296.078299 201.11139-44.691875 329.594647 39.104623 418.97942 145.247058 5.583159-5.587252 11.171434-5.587252 16.759709-5.587252 61.450561-33.517371 357.527836-173.177178 357.527836-173.177178L958.706413 198.329277C914.012492 198.329277 752.007771 254.191562 634.692878 293.296185L634.692878 293.296185zM489.44582 243.021152c-139.659807-178.76443-307.247686-122.902144-335.181899-111.726617-67.033719 16.758686-89.38068 139.659807-5.587252 178.763406 139.659807 44.688805 262.561951-5.587252 351.944678-50.279127C495.033072 248.608404 489.44582 243.021152 489.44582 243.021152L489.44582 243.021152zM489.44582 243.021152"  horiz-adv-x="1024" />

    
    <glyph glyph-name="desktop" unicode="&#58925;" d="M999.755184 797.212163L24.190491 797.212163C10.831057 797.212163 0 786.38337 0 773.0239349999999l0-673.23448c0-13.350381 10.831057-24.165592 24.190491-24.165592l366.850261 0 0-58.016888c0-0.860147 0.167502-1.634279 0.253517-2.464999l-52.643235 0c-12.238981 0-22.173674-9.934693-22.173674-22.17141 0-12.241244 9.934693-22.184992 22.173674-22.184992l358.785255 0c12.236717 0 22.17141 9.934693 22.17141 22.184992 0 12.236717-9.934693 22.17141-22.17141 22.17141l-52.640972 0c0.072433 0.803558 0.260308 1.604852 0.260308 2.464999L645.055625 75.62386300000003 999.807245 75.62386300000003c13.350381 0 24.192755 10.824266 24.192755 24.165592L1024 773.0239349999999C1023.959256 786.38337 1013.137254 797.212163 999.755184 797.212163zM955.41689 205.318125c0-13.361698-10.828793-24.190491-24.181437-24.190491L92.714749 181.12763399999994c-13.350381 0-24.183701 10.826529-24.183701 24.190491L68.531049 715.78797c0 13.350381 10.83332 24.183701 24.183701 24.183701l838.520703 0c13.350381 0 24.181437-10.831057 24.181437-24.183701L955.41689 205.318125z"  horiz-adv-x="1024" />

    
    <glyph glyph-name="qq" unicode="&#58881;" d="M534.377148 831.88168c302.340933 0 317.210595-288.721751 317.210595-288.721751 45.862537-60.731176 21.084201-115.245767 21.084201-115.245767 147.456377-231.735875 52.05047-298.68466 26.02677-303.621089-26.02677-4.937452-50.829665 28.51852-50.829665 28.51852s-8.650007-33.429367-29.740348-50.823526c76.854389-35.897581 63.201437-80.536244 63.201437-80.536244s-16.117073-134.765333-335.797929-49.576115l-27.27111 4.964058c-306.406528-110.594841-344.484775 38.423101-344.484775 38.423101s-12.401448 61.926398 47.078225 85.505419c-34.707476 21.084201-47.078225 65.669652-47.078225 65.669652s-30.992875-50.79692-71.881121-32.212656c-40.895409 18.587334-65.668629 183.380564 87.973634 302.33991 0 0-22.280446 70.63678 28.517497 112.778576C218.386334 549.343769 232.035192 831.88168 534.377148 831.88168M265.464559 533.226696c-66.916039-56.986899-22.303982-114.024963-22.303982-114.024963C95.705224 328.732256 121.729947 182.527382 121.729947 182.527382s23.52274 11.789511 40.251749 45.857421c16.731056 34.07098 42.754756-5.574972 42.754756-5.574972s16.117073-78.070076 65.462944-108.651582c49.348941-30.582529-2.174526-50.095955-2.174526-50.095955s-54.318116-0.788969-49.63956-37.673018c4.673439-36.885072 179.871647-83.065857 285.004079-1.24741l55.757908-7.437389c183.415356-63.783699 273.856182-4.298909 279.895735 7.111978 6.0416 11.411911-27.704992 33.809013-58.724473 46.788629-31.022551 12.986779-39.003316 26.66736-11.562337 44.936445 27.445072 18.262946 38.281885 54.513568 54.342676 92.036159 16.054651 37.525662 40.250726 19.197224 43.3626 8.650007 3.105734-10.541077 26.02063-45.825698 26.02063-45.825698s59.743686 63.312978-64.446801 250.297626c0 0 26.951839 56.026014-18.591427 101.592816 0 0-11.124362 262.724657-280.062534 262.724657C260.442172 786.01812 265.464559 533.226696 265.464559 533.226696"  horiz-adv-x="1024" />

    
    <glyph glyph-name="warning" unicode="&#58923;" d="M512-128c-281.6 0-512 230.4-512 512s230.4 512 512 512 512-230.4 512-512S793.6-128 512-128zM512 832C262.4 832 64 633.6 64 384s198.4-448 448-448 448 198.4 448 448S761.6 832 512 832zM512 96c-19.2 0-32 12.8-32 32L480 473.6c0 19.2 12.8 32 32 32s32-12.8 32-32L544 128C544 108.79999999999995 531.2 96 512 96zM512 608L512 608C492.8 608 480 620.8 480 640l0 0c0 19.2 12.8 32 32 32l0 0c19.2 0 32-12.8 32-32l0 0C544 620.8 531.2 608 512 608z"  horiz-adv-x="1024" />

    
    <glyph glyph-name="bars" unicode="&#58934;" d="M950.848 128l0-73.152q0-14.848-10.848-25.728t-25.728-10.848l-804.576 0q-14.848 0-25.728 10.848t-10.848 25.728l0 73.152q0 14.848 10.848 25.728t25.728 10.848l804.576 0q14.848 0 25.728-10.848t10.848-25.728zM950.848 420.576l0-73.152q0-14.848-10.848-25.728t-25.728-10.848l-804.576 0q-14.848 0-25.728 10.848t-10.848 25.728l0 73.152q0 14.848 10.848 25.728t25.728 10.848l804.576 0q14.848 0 25.728-10.848t10.848-25.728zM950.848 713.152l0-73.152q0-14.848-10.848-25.728t-25.728-10.848l-804.576 0q-14.848 0-25.728 10.848t-10.848 25.728l0 73.152q0 14.848 10.848 25.728t25.728 10.848l804.576 0q14.848 0 25.728-10.848t10.848-25.728z"  horiz-adv-x="1024" />

    
    <glyph glyph-name="arrows-alt" unicode="&#58926;" d="M1024 384q0-14.857143-10.857143-25.714286l-146.285714-146.285714q-10.857143-10.857143-25.714286-10.857143t-25.714286 10.857143-10.857143 25.714286l0 73.142857-219.428571 0 0-219.428571 73.142857 0q14.857143 0 25.714286-10.857143t10.857143-25.714286-10.857143-25.714286l-146.285714-146.285714q-10.857143-10.857143-25.714286-10.857143t-25.714286 10.857143l-146.285714 146.285714q-10.857143 10.857143-10.857143 25.714286t10.857143 25.714286 25.714286 10.857143l73.142857 0 0 219.428571-219.428571 0 0-73.142857q0-14.857143-10.857143-25.714286t-25.714286-10.857143-25.714286 10.857143l-146.285714 146.285714q-10.857143 10.857143-10.857143 25.714286t10.857143 25.714286l146.285714 146.285714q10.857143 10.857143 25.714286 10.857143t25.714286-10.857143 10.857143-25.714286l0-73.142857 219.428571 0 0 219.428571-73.142857 0q-14.857143 0-25.714286 10.857143t-10.857143 25.714286 10.857143 25.714286l146.285714 146.285714q10.857143 10.857143 25.714286 10.857143t25.714286-10.857143l146.285714-146.285714q10.857143-10.857143 10.857143-25.714286t-10.857143-25.714286-25.714286-10.857143l-73.142857 0 0-219.428571 219.428571 0 0 73.142857q0 14.857143 10.857143 25.714286t25.714286 10.857143 25.714286-10.857143l146.285714-146.285714q10.857143-10.857143 10.857143-25.714286z"  horiz-adv-x="1024" />

    
    <glyph glyph-name="power-off" unicode="&#59337;" d="M950.857143 384q0-89.142857-34.857143-170.285714t-93.714286-140-140-93.714286-170.285714-34.857143-170.285714 34.857143-140 93.714286-93.714286 140-34.857143 170.285714q0 104 46 196t129.428571 154.285714q24.571429 18.285714 54.571429 14.285714t47.714286-28.571429q18.285714-24 14-54t-28.285714-48.285714q-56-42.285714-86.571429-103.428571t-30.571429-130.285714q0-59.428571 23.142857-113.428571t62.571429-93.428571 93.428571-62.571429 113.428571-23.142857 113.428571 23.142857 93.428571 62.571429 62.571429 93.428571 23.142857 113.428571q0 69.142857-30.571429 130.285714t-86.571429 103.428571q-24 18.285714-28.285714 48.285714t14 54q17.714286 24.571429 48 28.571429t54.285714-14.285714q83.428571-62.285714 129.428571-154.285714t46-196z m-365.714286 438.857143l0-365.714286q0-29.714286-21.714286-51.428571t-51.428571-21.714286-51.428571 21.714286-21.714286 51.428571l0 365.714286q0 29.714286 21.714286 51.428571t51.428571 21.714286 51.428571-21.714286 21.714286-51.428571z"  horiz-adv-x="1024" />

    
    <glyph glyph-name="times" unicode="&#59479;" d="M851.428571 140.57142899999997q0-22.857143-16-38.857143l-77.714286-77.714286q-16-16-38.857143-16t-38.857143 16l-168 168-168-168q-16-16-38.857143-16t-38.857143 16l-77.714286 77.714286q-16 16-16 38.857143t16 38.857143l168 168-168 168q-16 16-16 38.857143t16 38.857143l77.714286 77.714286q16 16 38.857143 16t38.857143-16l168-168 168 168q16 16 38.857143 16t38.857143-16l77.714286-77.714286q16-16 16-38.857143t-16-38.857143l-168-168 168-168q16-16 16-38.857143z"  horiz-adv-x="1024" />

    
    <glyph glyph-name="back" unicode="&#58882;" d="M434.237 756.371q10.175 11.628 21.076 11.628 5.087-0.727 10.901-2.907 18.896-7.994 18.896-29.797 0-53.78 0-162.066 0-5.814 4.361-10.901 3.634-4.361 10.175-4.361 73.402-2.18 138.81-33.431 66.135-30.524 114.1-80.67 47.966-50.146 75.582-118.461 28.343-69.042 28.343-143.897 0-84.304-34.884-156.979-17.442 122.095-108.286 205.672-90.844 84.304-213.666 90.118-5.814 0-10.901-3.634-5.087-5.087-5.087-10.901 0-47.966 0-143.897 0-21.803-18.896-29.797-7.994-3.634-16.715-1.454-9.448 2.907-15.262 10.175-80.67 94.478-241.283 282.708-0.727 0.727-2.907 3.634-7.994 7.994-7.994 20.349 0 12.355 7.994 21.803 0.727 1.454 2.907 3.634 61.047 71.222 242.736 283.434zM485.11 527.443q-12.355 0-21.076 8.721t-8.721 21.076q0 50.873 0 153.345 0 5.814-5.087 7.268-1.454 0.727-2.907 0.727-2.907 0-5.814-2.907-73.402-85.757-219.48-257.998-3.634-5.087-3.634-10.175 0-0.727 0-1.454 0-4.361 3.634-9.448 73.402-85.757 220.933-257.271 3.634-4.361 7.994-2.907 5.087 2.907 5.087 7.994 0 45.059 0 135.903 0 12.355 9.448 21.076 8.721 8.721 20.349 8.721 113.374 0 206.398-63.228 92.298-62.501 134.45-164.973 0 19.622 0 59.594 0 70.495-26.89 134.45-26.89 63.954-72.675 109.74-45.786 46.512-109.013 74.129-63.228 27.617-132.996 27.617z"  horiz-adv-x="1024" />

    
    <glyph glyph-name="database" unicode="&#58924;" d="M870.4 838.4C780.8 876.8 652.8 896 512 896 371.2 896 243.2 876.8 153.6 838.4 51.2 793.6 0 742.4 0 684.8l0-595.2c0-57.6 51.2-115.2 153.6-153.6C243.2-108.79999999999995 371.2-128 512-128c140.8 0 268.8 19.2 358.4 57.6 96 38.4 153.6 96 153.6 153.6L1024 684.8C1024 742.4 972.8 793.6 870.4 838.4L870.4 838.4zM812.8 576C729.6 544 614.4 531.2 512 531.2 403.2 531.2 294.4 544 211.2 576 115.2 601.6 70.4 640 70.4 684.8c0 38.4 51.2 76.8 140.8 108.8C294.4 819.2 403.2 832 512 832c102.4 0 217.6-19.2 300.8-44.8 89.6-32 140.8-70.4 140.8-108.8C953.6 640 908.8 601.6 812.8 576L812.8 576zM819.2 390.4C736 364.79999999999995 620.8 345.6 512 345.6c-108.8 0-217.6 19.2-307.2 44.8C115.2 422.4 64 460.8 64 499.2L64 569.6C128 544 172.8 512 243.2 499.2 326.4 480 416 467.2 512 467.2c96 0 185.6 12.8 268.8 32C851.2 512 896 544 960 569.6l0-76.8C960 460.8 908.8 422.4 819.2 390.4L819.2 390.4zM819.2 185.60000000000002c-83.2-25.6-198.4-44.8-307.2-44.8-108.8 0-217.6 19.2-307.2 44.8C115.2 211.20000000000005 64 249.60000000000002 64 294.4L64 390.4c64-32 108.8-57.6 179.2-76.8C326.4 294.4 416 281.6 512 281.6c96 0 185.6 12.8 268.8 32C851.2 332.79999999999995 896 358.4 960 390.4l0-96C960 249.60000000000002 908.8 211.20000000000005 819.2 185.60000000000002L819.2 185.60000000000002zM512-64c-108.8 0-217.6 19.2-307.2 44.8C115.2 6.399999999999977 64 44.799999999999955 64 83.20000000000005l0 96c64-32 108.8-57.6 179.2-76.8 76.8-19.2 172.8-32 262.4-32 96 0 185.6 12.8 268.8 32 76.8 19.2 121.6 44.8 185.6 76.8l0-96c0-38.4-51.2-76.8-140.8-108.8C736-51.200000000000045 614.4-64 512-64L512-64zM512-64"  horiz-adv-x="1024" />

    
    <glyph glyph-name="set" unicode="&#59017;" d="M1024.073666 424.171914c0.767616 25.587206-14.584708 37.101449-27.634183 41.963018-32.495752 12.537731-64.991504 25.331334-97.487256 38.636682l-5.117441 2.046977c-3.326337 1.27936-8.955522 3.582209-9.467266 3.582209-3.326337 4.861569-6.14093 11.770115-8.955522 19.190405-2.302849 5.885057-4.349825 11.514243-7.164418 17.143428-0.511744 1.023488-1.023488 2.302849 1.27936 7.932034l8.443778 19.702149c10.490755 24.051974 21.237381 48.871564 30.448776 74.202899 0.511744 1.27936 1.27936 2.302849 1.791104 3.582209 4.349825 8.187906 17.3993 33.51924-6.14093 55.524238-10.234883 9.723138-20.469765 19.702149-30.448776 29.425287-11.514243 11.258371-23.028486 22.516742-35.054473 33.775112-6.908546 6.652674-17.655172 10.490755-27.890055 10.490755l-7.932034-0.511744-4.349825-1.791104c-35.054473-13.817091-69.853073-28.401799-104.13993-43.498251-5.373313-2.302849-11.258371-4.861569-17.143428-3.838081-8.955522 3.326337-21.237381 7.932034-34.286857 14.328836-1.023488 1.023488-3.070465 5.629185-4.605697 8.955522-15.608196 35.566217-31.472264 83.414293-47.848076 118.724638-5.629185 12.025987-20.213893 21.493253-34.030985 21.749125-31.216392 0.511744-62.176912 0.767616-93.393303-0.255872-13.817091-0.511744-29.425287-11.002499-35.310345-24.307846-8.187906-18.934533-39.148426-104.907546-46.824588-122.562719-0.511744-0.767616-1.791104-2.302849-2.558721-2.558721-10.234883-5.373313-22.004998-9.97901-34.542729-14.072964-1.27936-0.511744-3.070465-0.767616-4.093953-1.023488-22.516742 8.443778-45.033483 17.3993-67.294353 26.354823-14.328836 5.629185-28.657671 11.514243-43.242379 17.143428-19.446277 7.676162-37.613193 3.838081-51.174413-9.97901-16.375812-16.631684-33.007496-32.751624-49.63918-48.871564l-10.234883-9.97901c-13.561219-13.049475-17.143428-30.192904-9.723138-46.824588l3.326337-7.676162c14.072964-32.23988 28.401799-64.735632 41.707146-97.231384 1.535232-3.582209 1.791104-6.908546 1.791104-7.676162-3.326337-10.746627-8.187906-21.493253-13.561219-33.007496l-1.791104-3.838081c-33.007496-13.561219-66.014993-26.866567-99.022489-40.171914-31.984008-12.793603-40.427786-25.075462-40.427786-59.362319l0.255872-21.749125c0.255872-15.864068 0.511744-31.728136-0.511744-47.592204-0.767616-15.352324 4.093953-35.822089 32.23988-46.568716l23.284358-8.955522c24.307846-9.467266 48.615692-18.934533 73.17941-27.634183 12.281859-4.349825 14.328836-8.955522 15.608196-14.584708 1.27936-5.629185 3.838081-9.723138 4.349825-9.723138l2.046977-4.605697c4.861569-11.770115 6.14093-16.11994 4.605697-20.469765l-5.885057-14.328836c-12.793603-30.704648-25.587206-61.153423-37.613193-92.113943-4.861569-12.281859-3.326337-32.23988 7.932034-44.009995 23.54023-24.81959 47.592204-48.103948 66.014993-65.503248 7.164418-6.908546 18.166917-11.002499 29.169415-11.002499l5.117441 0.255872c8.69965 1.023488 16.11994 4.349825 21.749125 7.164418l34.798601 15.352324c22.26087 9.723138 44.777611 19.702149 64.735632 28.657671 9.211394-2.814593 18.166917-6.908546 28.913543-11.770115 11.514243-5.117441 13.561219-6.652674 15.096452-11.002499 13.305347-34.542729 28.657671-81.111444 43.498251-113.095452 5.885057-12.793603 22.004998-23.284358 36.589705-23.54023 15.864068-0.511744 31.728136-0.767616 47.592204-0.767616 16.11994 0 32.495752 0.255872 48.615692 0.767616 14.328836 0.511744 29.937031 10.234883 36.589705 22.516742 7.932034 15.096452 22.26087 50.662669 22.26087 50.662669 0 0 19.190405 61.153423 22.516742 69.597201 9.467266 5.373313 32.751624 14.072964 42.730635 15.608196l23.796102-9.723138c16.631684-6.908546 33.263368-13.817091 50.150925-20.469765 10.234883-4.093953 20.725637-7.676162 31.472264-11.514243l24.307846-8.69965 12.537731 5.885057c4.605697 1.791104 11.002499 4.349825 16.887556 9.97901 7.164418 6.908546 14.072964 13.817091 20.981509 20.981509 11.514243 11.770115 22.516742 23.028486 34.286857 33.007496 10.746627 8.955522 26.610695 28.913543 14.328836 59.874063-5.629185 14.328836-12.281859 28.401799-18.678661 42.474763-4.349825 9.467266-8.69965 19.190405-13.049475 28.913543-1.791104 4.349825-3.838081 8.443778-5.885057 12.537731-9.211394 18.678661-10.490755 23.796102-4.605697 32.495752 4.349825 6.396802 6.908546 12.537731 9.211394 18.166917 1.27936 3.326337 3.582209 8.955522 6.396802 10.234883 5.885057 1.27936 11.770115 2.814593 17.3993 5.117441l20.213893 8.187906c20.213893 8.187906 40.171914 16.375812 59.618191 25.587206 3.838081 1.791104 6.908546 3.070465 9.467266 4.093953 26.866567 11.002499 29.425287 24.563718 28.913543 53.221389C1023.561921 376.067966 1023.561921 400.11994 1024.073666 424.171914zM964.455475 339.222389c-18.678661-8.955522-37.869065-16.631684-57.05947-24.563718l-20.725637-8.443778c-3.070465-1.27936-6.396802-2.046977-10.234883-2.814593-26.610695-6.14093-35.054473-26.866567-40.171914-39.148426-1.535232-3.582209-3.070465-7.164418-4.349825-9.211394-23.028486-33.263368-8.69965-62.688656 1.023488-82.134933 1.791104-3.326337 3.326337-6.908546 4.861569-10.234883 4.349825-9.97901 8.955522-19.958021 13.561219-30.192904 6.14093-13.305347 12.281859-26.610695 17.655172-40.171914 1.023488-2.558721 1.023488-3.582209-0.511744-4.349825-13.305347-11.514243-25.587206-23.796102-37.357321-35.822089-5.885057-6.14093-11.770115-12.025987-18.678661-17.911044l-4.349825 1.535232c-9.97901 3.582209-19.958021 6.908546-29.425287 10.746627-16.631684 6.652674-33.007496 13.561219-49.383308 20.213893l-27.890055 11.514243-7.676162 2.302849-4.861569 0c-13.817091 0-78.296852-16.631684-88.531734-41.451274-4.349825-10.490755-36.845577-105.41929-42.986507-117.445277-28.401799-0.767616-56.803598-0.767616-85.205397 0-14.328836 30.96052-27.890055 73.947026-40.171914 105.41929-9.211394 23.796102-27.634183 32.23988-42.730635 38.892554-10.746627 4.861569-21.493253 9.467266-32.495752 13.049475-9.723138 3.070465-22.004998 2.558721-31.472264-1.27936-22.772614-9.723138-45.289355-19.446277-67.806097-29.425287l-35.822089-15.608196c-1.535232-0.767616-3.582209-1.791104-5.117441-2.302849-16.375812 15.608196-36.845577 35.566217-57.05947 56.547726 11.514243 29.169415 23.54023 58.082959 35.822089 86.996502l5.885057 14.328836c9.97901 23.796102 1.535232 43.754123-4.605697 58.338831l-4.605697 9.723138c-6.14093 22.26087-21.749125 38.124938-46.568716 46.568716-24.051974 8.443778-47.848076 17.655172-71.388306 26.866567l-23.54023 9.211394c-0.255872 0-0.511744 0.255872-0.511744 0.255872 0.767616 16.11994 0.511744 32.495752 0.255872 48.615692l-0.255872 20.981509c0 4.861569 0 7.932034 0.255872 9.723138 1.535232 0.767616 4.349825 2.046977 9.211394 4.093953 34.542729 13.817091 69.085457 27.890055 103.628186 41.963018 5.117441 2.046977 14.584708 7.164418 19.190405 17.655172l4.349825 9.467266c5.629185 12.281859 11.514243 25.331334 15.864068 39.148426 5.117441 16.887556-0.511744 34.030985-3.326337 40.683658-13.561219 33.007496-27.890055 65.75912-42.218891 98.510745l-1.023488 2.558721 6.908546 6.652674c16.631684 15.864068 33.007496 31.728136 49.383308 48.35982 14.072964-5.629185 28.401799-11.258371 42.474763-16.887556 22.772614-8.955522 45.289355-18.166917 68.317841-26.866567 10.490755-4.093953 24.051974-3.838081 36.589705 0 15.352324 4.861569 29.425287 10.746627 42.218891 17.3993 10.746627 5.629185 20.213893 15.864068 25.075462 26.610695 7.932034 17.911044 37.357321 100.813593 44.777611 117.701149 26.098951 0.767616 52.197901 0.511744 78.296852 0.255872 15.096452-32.751624 29.937031-78.04098 44.521739-111.56022 5.117441-12.025987 12.281859-27.378311 38.38081-38.892554 5.885057-2.558721 14.328836-6.396802 17.143428-7.932034 20.981509-13.305347 48.871564-4.605697 65.247376 2.558721 31.472264 13.817091 63.456272 27.122439 95.44028 39.916042 9.97901-9.467266 19.702149-18.934533 29.681159-28.657671 9.211394-8.955522 18.166917-17.911044 27.634183-26.866567 0 0 0-0.255872-0.255872-0.255872-1.791104-3.326337-3.326337-6.652674-4.349825-9.723138-8.69965-24.051974-19.190405-48.103948-29.169415-71.388306l-8.443778-19.702149c-2.814593-6.396802-11.258371-26.098951-0.511744-48.615692 2.046977-4.349825 3.838081-8.69965 5.373313-13.305347 3.582209-9.467266 7.676162-20.213893 14.584708-29.937031 8.443778-12.025987 22.26087-17.3993 31.984008-21.237381l4.093953-1.535232c31.216392-12.793603 62.432784-25.075462 94.16092-37.357321-0.511744-23.54023-0.511744-47.08046 0-70.62069 0-2.814593 0.255872-5.373313 0.255872-7.42029C971.875765 342.548726 968.549428 341.013493 964.455475 339.222389zM512.329538 576.927536c-106.442779 0-192.927536-86.484758-192.927536-192.927536 0-106.442779 86.484758-192.927536 192.927536-192.927536 106.442779 0 192.927536 86.484758 192.927536 192.927536C705.257074 490.442779 618.772316 576.927536 512.329538 576.927536zM512.329538 240.455772c-79.064468 0-143.544228 64.47976-143.544228 143.544228s64.47976 143.544228 143.544228 143.544228 143.544228-64.47976 143.544228-143.544228S591.394005 240.455772 512.329538 240.455772z"  horiz-adv-x="1025" />

    
    <glyph glyph-name="password" unicode="&#58907;" d="M916.210526-128L107.789474-128C78.012632-128 53.894737-103.85515799999996 53.894737-74.10526300000004L53.894737 410.947368C53.894737 440.724211 78.012632 464.842105 107.789474 464.842105L188.631579 464.842105 188.631579 572.631579C188.631579 751.238737 333.419789 896 512 896 690.580211 896 835.368421 751.238737 835.368421 572.631579L835.368421 464.842105 916.210526 464.842105C945.987368 464.842105 970.105263 440.724211 970.105263 410.947368L970.105263-74.10526300000004C970.105263-103.85515799999996 945.987368-128 916.210526-128ZM781.473684 572.631579C781.473684 721.461895 660.830316 842.105263 512 842.105263 363.169684 842.105263 242.526316 721.461895 242.526316 572.631579L242.526316 464.842105 781.473684 464.842105 781.473684 572.631579ZM916.210526 410.947368L835.368421 410.947368 188.631579 410.947368 107.789474 410.947368 107.789474-74.10526300000004 916.210526-74.10526300000004 916.210526 410.947368ZM512 303.15789500000005C526.874947 303.15789500000005 538.947368 291.085474 538.947368 276.21052599999996L538.947368 60.63157899999999C538.947368 45.75663199999997 526.874947 33.684211000000005 512 33.684211000000005 497.125053 33.684211000000005 485.052632 45.75663199999997 485.052632 60.63157899999999L485.052632 276.21052599999996C485.052632 291.085474 497.125053 303.15789500000005 512 303.15789500000005Z"  horiz-adv-x="1024" />

    
    <glyph glyph-name="success" unicode="&#58922;" d="M512-128C229.239611-128 0.017919 101.25826199999995 0.017919 384.01865 0.017919 666.77904 229.239611 896.000731 512 896.000731 794.760389 896.000731 1023.982081 666.77904 1023.982081 384.01865 1023.982081 101.25826199999995 794.760389-128 512-128ZM512 822.823864C269.649625 822.823864 73.158216 626.332455 73.158216 383.982081 73.158216 141.631706 269.649625-54.85970299999997 512-54.85970299999997 754.350375-54.85970299999997 950.841784 141.631706 950.841784 383.982081 950.841784 626.332455 754.350375 822.823864 512 822.823864ZM464.678227 211.80982100000006L455.828252 202.99641499999996 454.109455 204.71521199999995C449.465046 202.52100299999995 444.345225 201.13133700000003 438.859703 201.13133700000003 431.070262 201.13133700000003 424.231643 204.130089 418.307279 208.262517L417.429596 207.42140300000005 413.041178 211.80982100000006C413.004608 211.84639100000004 413.004608 211.84639100000004 412.968037 211.88296100000002L262.262455 362.58854299999996 314.009216 414.298734 438.859703 289.44824600000004 714.415772 565.040887 766.162533 513.294126 464.751368 211.88296100000002C464.714798 211.84639100000004 464.714798 211.84639100000004 464.678227 211.80982100000006Z"  horiz-adv-x="1024" />

    
    <glyph glyph-name="search" unicode="&#58911;" d="M182.604977 426.619766c0.818627-8.083941 7.572299-14.223643 15.758569-14.223643l1.637254 0.102328c4.297792 0.409313 7.981613 2.455881 10.64215 5.832717 2.660538 3.274508 3.888478 7.367643 3.376836 11.665434-1.023284 10.02818-1.534926 19.44239-1.534926 28.8566 0 81.453383 36.326571 157.790347 99.565504 209.363845 3.274508 2.660538 5.321075 6.446687 5.730389 10.64215 0.409313 4.297792-0.818627 8.288598-3.479165 11.665434-2.865194 3.683821-7.469971 5.832717-12.279404 5.832717-2.558209 0-6.446687-0.61397-9.925852-3.479165-70.708904-57.713201-111.333267-142.952733-111.333267-233.922654C180.865394 448.313381 181.479364 437.67123 182.604977 426.619766zM963.677426-74.891576 776.723494 148.695913c2.455881 2.353553 4.911762 4.707105 7.265314 7.060658 39.191766 39.294094 70.094934 84.932547 91.583891 135.892076 22.307585 52.699111 33.563705 108.672729 33.563705 166.38593s-11.256121 113.686819-33.563705 166.38593c-21.488958 50.8572-52.289797 96.597981-91.583891 135.892076-39.294094 39.191766-84.932547 70.094934-135.892076 91.583891-52.699111 22.307585-108.672729 33.563705-166.38593 33.563705-57.713201 0-113.686819-11.256121-166.38593-33.563705-50.8572-21.488958-96.597981-52.289797-135.892076-91.583891s-70.094934-84.932547-91.583891-135.892076c-22.307585-52.699111-33.563705-108.672729-33.563705-166.38593s11.256121-113.686819 33.563705-166.38593c21.488958-50.8572 52.289797-96.597981 91.583891-135.892076 39.191766-39.191766 84.932547-70.094934 135.892076-91.583891 52.699111-22.307585 108.672729-33.563705 166.38593-33.563705 57.713201 0 113.686819 11.256121 166.38593 33.563705 31.824123 13.405016 61.49935 30.493854 88.923354 50.959528l186.646947-223.280504c5.116419-6.139702 12.484061-9.311882 19.954032-9.311882 5.935045 0 11.767763 1.944239 16.577196 6.037374C971.352054-102.110922 972.784651-85.840712 963.677426-74.891576zM481.813131 833.170381c100.179474 0 194.423903-38.987109 265.235135-109.90067 70.811232-70.811232 109.90067-165.055661 109.90067-265.235135 0-100.179474-38.987109-194.423903-109.90067-265.235135-70.811232-70.811232-165.055661-109.90067-265.235135-109.90067-100.179474 0-194.423903 38.987109-265.235135 109.90067-70.811232 70.811232-109.90067 165.055661-109.90067 265.235135 0 100.179474 38.987109 194.423903 109.90067 265.235135C287.389228 794.183272 381.531328 833.170381 481.813131 833.170381z"  horiz-adv-x="1024" />

    
    <glyph glyph-name="question-circle" unicode="&#58884;" d="M519-63.960000000000036c-96.2 0-189.3 30.8-267.7 89.5-95.7 71.7-157.9 176.5-174.8 294.9-17 118.5 13.2 236.4 84.9 332.2 148.1 197.79999999 429.4 238.1 627.1 90.1 82.9-62.1 142-151.6 166.6-252 4.2-17.20000001-6.3-34.5-23.5-38.7-17.2-4.1-34.5 6.3-38.70000001 23.5-21 86-71.7 162.8-142.79999999 216.00000001-169.4 126.9-410.6 92.3-537.5-77.20000001-61.5-82.1-87.3-183.2-72.69999999-284.7 14.6-101.50000001 67.8-191.30000001 149.89999999-252.7 169.5-127 410.7-92.4 537.6 77.1 33.2 44.4 56.00000001 94.1 67.6 147.8 3.8 17.3 20.9 28.3 38 24.5 17.29999999-3.7 28.3-20.8 24.5-38-13.7-62.8-40.2-120.8-79-172.69999999-71.7-95.7-176.5-157.9-295-174.80000002C562-62.460000000000036 540.40000001-63.960000000000036 519-63.960000000000036zM549.376 283.13599999999997l-62.976 0c0 6.14399999 0 13.824 0 23.552-1.536 45.056 18.944 81.92 60.928 110.08 43.52 31.232 64.512 62.464 62.976 93.696-4.608 43.52-29.696 67.072-74.752 70.14400001-54.784 0-89.088-31.232-102.912-93.69600001l-68.096 16.384c18.944 95.232 78.848 140.288 180.22400001 135.68 86.016-4.608 133.632-45.056 142.84799999-121.856 3.072-50.176-25.6-93.696-86.528-131.072-35.84-23.552-53.248-51.71199999-51.712-84.48C549.376 293.88800000000003 549.37599999 287.744 549.376 283.13599999999997zM556.032 152.06399999999996l-77.312 0 0 74.752 77.312 1e-8L556.032 152.06399999999996z"  horiz-adv-x="1024" />

    
    <glyph glyph-name="spinner" unicode="&#58886;" d="M1024 384a506.688 506.688 0 0 1-155.584 356.352A497.664 497.664 0 0 1 323.648 838.656c-59.072-25.92-112.512-63.488-156.736-109.568S87.744 628.352 64.704 569.28a481.984 481.984 0 0 1 7.36-367.488c25.088-57.088 61.504-108.8 106.112-151.552S275.648-26.24000000000001 332.8-48.511999999999944a466.304 466.304 0 0 1 179.136-31.552 458.048 458.048 0 0 1 417.664 291.008 446.72 446.72 0 0 1 26.56 103.808l3.776-0.128a64 64 0 0 1 63.744 69.312h0.256z m-101.696-169.92c-23.488-53.184-57.472-101.376-99.2-141.184s-91.008-71.168-144.256-91.776a432.576 432.576 0 0 0-166.912-29.056 427.264 427.264 0 0 0-299.84 132.16 422.208 422.208 0 0 0-88.32 139.072 416.896 416.896 0 0 0 7.424 318.464c21.888 49.28 53.504 93.952 92.224 130.816s84.544 65.856 133.888 84.864c49.344 19.072 102.144 28.032 154.624 26.624s104.256-12.928 151.552-34.048c47.36-21.056 90.24-51.52 125.632-88.768s63.232-81.28 81.408-128.704a385.28 385.28 0 0 0 25.408-148.48h0.256a64 64 0 0 1 56.832-68.928 439.808 439.808 0 0 0-30.784-100.992z"  horiz-adv-x="1024" />

    
    <glyph glyph-name="angle-right" unicode="&#58888;" d="M682.002 390.095c-0.212-5.273-2.461-9.984-5.976-13.397l-266.006-266.008c-3.438-3.438-8.558-5.705-13.129-5.705s-9.728 2.304-13.129 5.705l-28.562 28.562c-3.488 3.355-5.667 8.049-5.707 13.252 0.214 5.15 2.462 9.86 5.977 13.274l224.314 224.317-224.585 224.585c-3.438 3.438-5.705 8.558-5.705 13.129s2.304 9.728 5.705 13.129l28.562 28.562c3.438 3.438 8.558 5.705 13.129 5.705s9.728-2.304 13.129-5.705l266.277-266.277c3.452-3.463 5.617-8.212 5.714-13.465z"  horiz-adv-x="1024" />

    
    <glyph glyph-name="chess-rook" unicode="&#58897;" d="M352 512l320 0 0-352-320 0 0 352ZM342.624 118.62400000000002L224 0v-64h576v64l-118.624 118.624a32 32 0 0 1-22.624 9.376h-293.504a32 32 0 0 1-22.624-9.376zM224 816V672l118.624-118.624a32 32 0 0 1 22.624-9.376h293.504a32 32 0 0 1 22.624 9.376L800 672V816a16 16 0 0 1-16 16h-88.832a16 16 0 0 1-15.776-13.376l-11.552-69.248a16 16 0 0 0-15.808-13.376h-52.864a16 16 0 0 0-15.776 13.376l-11.552 69.248A16 16 0 0 1 556.032 832h-88.064a16 16 0 0 1-15.776-13.376l-11.552-69.248a16 16 0 0 0-15.808-13.376h-52.864a16 16 0 0 0-15.776 13.376l-11.552 69.248A16 16 0 0 1 328.832 832H240a16 16 0 0 1-16-16z"  horiz-adv-x="1024" />

    
    <glyph glyph-name="minus" unicode="&#59386;" d="M810.666667 341.333333H213.333333v85.333334h597.333334v-85.333334z"  horiz-adv-x="1024" />

    
    <glyph glyph-name="user1" unicode="&#58914;" d="M902.4 77.9c-37 119.1-128.8 216.6-245.5 260.9-6.3 2.4-13.5 1.4-19-2.6-36.7-27-80.3-41.2-125.9-41.2-45.6 0-89.2 14.2-125.9 41.2-5.5 4-12.6 5-19 2.6C250.3 294.5 158.6 197 121.6 77.9c-10.4-33.4-4.4-68.8 16.4-97 20.8-28.2 52.8-44.4 87.8-44.4h572.4c35 0 67 16.2 87.8 44.4 20.8 28.2 26.8 63.5 16.4 97z m-48.7-73.3c-13.1-17.8-33.4-28.1-55.5-28.1H225.8c-22.1 0-42.4 10.2-55.5 28.1-13.1 17.8-16.9 40.2-10.3 61.3C192.3 170 271 255.8 371.6 297.4c41.6-27.8 89.9-42.5 140.4-42.5 50.4 0 98.8 14.7 140.4 42.5C753 255.8 831.7 170 864.1 66c6.5-21.2 2.8-43.5-10.4-61.4zM512 325.1c139.6 0 253.2 113.6 253.2 253.2C765.2 718 651.6 831.6 512 831.6S258.8 718 258.8 578.4c0-139.7 113.6-253.3 253.2-253.3z m0 466.3c117.5 0 213.1-95.6 213.1-213.1S629.5 365.2 512 365.2s-213.1 95.6-213.1 213.1S394.5 791.4 512 791.4z"  horiz-adv-x="1024" />

    
    <glyph glyph-name="backward" unicode="&#58906;" d="M925.147429 815.433143c14.299429 14.299429 25.709714 9.142857 25.709714-10.861714v-841.142858c0-20.004571-11.446857-25.161143-25.709714-10.861714L519.424 358.29028600000004a33.28 33.28 0 0 0-7.424 10.861714V-36.571428999999966c0-20.004571-11.446857-25.161143-25.709714-10.861714L80.566857 358.29028600000004a36.205714 36.205714 0 0 0 0 51.419428L486.290286 815.433143c14.299429 14.299429 25.709714 9.142857 25.709714-10.861714v-405.723429a33.645714 33.645714 0 0 0 7.424 10.861714z"  horiz-adv-x="1024" />

    
    <glyph glyph-name="pdf" unicode="&#58883;" d="M93.297778 896A8.021333 8.021333 0 0 1 85.333333 888.035556V384h831.943111V640h-247.978666a8.021333 8.021333 0 0 0-7.964445 7.964444V896H93.297778z m600.007111 0v-223.971556h223.971555L693.304889 896z m-519.964445-614.001778v-186.026666h47.957334V157.013333h30.037333c13.596444 0 24.917333 1.251556 34.019556 5.006223 9.102222 3.697778 16.554667 9.671111 24.007111 16.952888a55.523556 55.523556 0 0 1 12.970666 20.024889c2.901333 7.964444 3.982222 15.644444 3.982223 24.007111 0 10.752-1.991111 20.309333-5.973334 27.989334a48.924444 48.924444 0 0 1-17.009777 19.000889 64.853333 64.853333 0 0 1-20.992 8.988444 123.676444 123.676444 0 0 1-29.980445 3.015111h-79.075555z m186.993778 0v-186.026666h65.991111c14.848 0 27.192889 0.853333 38.001778 3.072 10.865778 2.161778 20.935111 6.485333 30.037333 11.946666 12.117333 7.395556 22.072889 17.351111 30.037334 31.061334 7.907556 13.767111 11.946667 29.639111 11.946666 46.990222 0 17.976889-3.527111 33.735111-10.979555 46.990222a83.683556 83.683556 0 0 1-30.037333 32.028444 92.16 92.16 0 0 1-27.989334 10.012445 170.325333 170.325333 0 0 1-38.968889 3.982222H360.334222z m212.992 0v-186.026666h47.957334v80.042666h79.018666v36.010667H621.283556v34.019555h84.992v35.953778H573.326222z m-352.028444-34.986666h8.021333c7.907556 0 14.222222 0.284444 19.000889 0a44.600889 44.600889 0 0 0 15.018667-3.015112 23.324444 23.324444 0 0 0 10.012444-7.964444c2.844444-3.754667 3.982222-8.760889 3.982222-14.051556 0-5.347556-0.568889-9.216-1.991111-12.970666a25.144889 25.144889 0 0 0-20.024889-16.042667c-5.233778-0.967111-11.832889-0.967111-19.968-0.967111H221.297778v55.011556z m187.050666 0h11.946667c10.353778 0 17.92-0.113778 23.04-0.967112 5.12-0.853333 11.036444-2.616889 15.985778-5.006222 9.671111-4.949333 16.554667-11.264 21.048889-20.024889 4.437333-8.647111 6.940444-19.740444 6.940444-31.971555 0-12.344889-2.844444-22.584889-6.997333-31.004445a45.738667 45.738667 0 0 0-19.000889-20.024889c-5.12-2.730667-10.638222-4.892444-15.985778-5.973333-5.347556-1.024-13.596444-1.024-25.031111-1.024h-11.946667v116.053333zM85.333333 0v-120.035556c0-4.380444 3.584-7.964444 7.964445-7.964444h815.957333a7.964444 7.964444 0 0 1 8.021333 7.964444v120.035556H85.333333z"  horiz-adv-x="1024" />

    
    <glyph glyph-name="fail" unicode="&#58968;" d="M512 895.994C229.233 895.994 0.006 666.767 0.006 384c0-282.766 229.228-511.993 511.994-511.993S1023.993 101.23500000000001 1023.993 384C1023.993 666.767 794.766 895.994 512 895.994z m319.607-831.601c-41.53-41.529-89.874-74.128-143.689-96.891-55.686-23.553-114.873-35.495-175.918-35.495s-120.233 11.942-175.918 35.495c-53.816 22.763-102.161 55.361-143.69 96.891-41.53 41.53-74.128 89.874-96.891 143.689C71.948 263.76800000000003 60.006 322.95500000000004 60.006 384s11.942 120.233 35.495 175.918c22.762 53.816 55.361 102.16 96.891 143.69s89.874 74.128 143.69 96.891C391.767 824.052 450.955 835.994 512 835.994s120.232-11.942 175.918-35.495c53.815-22.763 102.159-55.361 143.689-96.891 41.529-41.53 74.128-89.875 96.891-143.69 23.553-55.685 35.495-114.873 35.495-175.918s-11.942-120.232-35.495-175.918c-22.763-53.815-55.361-102.159-96.891-143.689zM749.773 621.774c-15.621 15.621-40.947 15.621-56.568 0L512 440.568 330.795 621.773c-15.621 15.621-40.947 15.621-56.568 0-15.621-15.621-15.621-40.947 0-56.568L455.432 384 274.227 202.79600000000005c-15.621-15.621-15.621-40.947 0-56.568 7.811-7.811 18.047-11.716 28.284-11.716s20.474 3.905 28.284 11.716L512 327.432l181.205-181.205c7.811-7.811 18.047-11.716 28.284-11.716s20.474 3.905 28.284 11.716c15.621 15.621 15.621 40.947 0 56.568L568.568 384l181.205 181.206c15.622 15.621 15.622 40.947 0 56.568z"  horiz-adv-x="1024" />

    
    <glyph glyph-name="table" unicode="&#58880;" d="M56.889 839.111V-71.11000000000001H967.11V839.11H56.89z m56.889-227.555h227.555v-170.667H113.778V611.556z m512-170.667H398.222V611.556h227.556v-170.667z m0-56.889v-170.667H398.222V384h227.556z m-512 0h227.555v-170.667H113.778V384z m0-398.222V156.44399999999996h227.555v-170.666H113.778z m284.444 0V156.44399999999996h227.556v-170.666H398.222z m512 0H682.667V156.44399999999996h227.555v-170.666z m0 227.555H682.667V384h227.555v-170.667z m0 227.556H682.667V611.556h227.555v-170.667zM113.778 668.444V782.222h796.444v-113.778H113.778z"  horiz-adv-x="1024" />

    
    <glyph glyph-name="message" unicode="&#58946;" d="M514.56-40.44799999999998c-6.656 0-13.312 2.56-17.92 7.68L355.84 107.51999999999998H35.84c-14.336 0-25.6 11.264-25.6 25.6V783.36c0 14.336 11.264 25.6 25.6 25.6h957.44c14.336 0 25.6-11.264 25.6-25.6v-650.24c0-14.336-11.264-25.6-25.6-25.6h-320L532.48-32.76800000000003c-4.608-5.12-11.264-7.68-17.92-7.68zM61.44 158.72000000000003h305.152c6.656 0 13.312-2.56 17.92-7.68l130.048-130.048 130.048 130.048c4.608 4.608 11.264 7.68 17.92 7.68H967.68V757.76H61.44v-599.04zM263.68 437.76m-53.76 0a53.76 53.76 0 1 1 107.52 0 53.76 53.76 0 1 1-107.52 0ZM514.56 437.76m-53.76 0a53.76 53.76 0 1 1 107.52 0 53.76 53.76 0 1 1-107.52 0ZM770.56 437.76m-53.76 0a53.76 53.76 0 1 1 107.52 0 53.76 53.76 0 1 1-107.52 0Z"  horiz-adv-x="1024" />

    
    <glyph glyph-name="img" unicode="&#58890;" d="M892 1H133c-38 0-69 31-69 69V698c0 38 31 69 69 69h47c12.7 0 23-10.3 23-23s-10.3-23-23-23h-47c-12.7 0-23-10.3-23-23v-628c0-12.7 10.3-23 23-23h759c12.7 0 23 10.3 23 23V698c0 12.7-10.3 23-23 23H365.9c-12.7 0-23 10.3-23 23s10.3 23 23 23H892c38 0 69-31 69-69v-628c0-38-31-69-69-69zM293 721h-35c-12.7 0-23 10.3-23 23s10.3 23 23 23h35c12.7 0 23-10.3 23-23s-10.3-23-23-23zM122.2 23.299999999999955l-34.4 30.6 264.7 296.8 185.4-102.2 219.5 232.3 187.9-168.1-30.6-34.3-154.6 138.3-213.2-225.6-184.5 101.6zM287 425c-59 0-107 48-107 107s48 107 107 107 107-48 107-107-48-107-107-107z m0 168c-33.6 0-61-27.4-61-61s27.4-61 61-61 61 27.4 61 61-27.4 61-61 61z"  horiz-adv-x="1024" />

    
    <glyph glyph-name="user" unicode="&#58902;" d="M958.744-63H65.256c5.43 164.648 99.9 306.757 236.805 379.726A299.076 299.076 0 0 0 212 531c0 165.685 134.315 300 300 300s300-134.315 300-300a299.076 299.076 0 0 0-90.061-214.274C858.844 243.75699999999995 953.315 101.64800000000002 958.744-63zM752 531c0 132.548-107.452 240-240 240S272 663.548 272 531s107.452-240 240-240 240 107.452 240 240z m-82.542-255.384a300.157 300.157 0 0 0-314.916 0C241.3 225.11400000000003 156.782 121.81799999999998 132.269-3h759.462C867.218 121.81799999999998 782.7 225.11400000000003 669.458 275.616z"  horiz-adv-x="1024" />

    
    <glyph glyph-name="trash" unicode="&#59100;" d="M960 608a32 32 0 0 0-32 32 32.036 32.036 0 0 1-32 32H128a32.036 32.036 0 0 1-32-32 32 32 0 0 0-64 0 96.109 96.109 0 0 0 96 96h768a96.109 96.109 0 0 0 96-96 32 32 0 0 0-32-32zM672 32a32 32 0 0 0-32 32V512a32 32 0 0 0 64 0v-448a32 32 0 0 0-32-32zM352 32a32 32 0 0 0-32 32V512a32 32 0 0 0 64 0v-448a32 32 0 0 0-32-32zM512 32a32 32 0 0 0-32 32V512a32 32 0 0 0 64 0v-448a32 32 0 0 0-32-32zM704 672a32 32 0 0 0-32 32v64a32.036 32.036 0 0 1-32 32H384a32.036 32.036 0 0 1-32-32v-64a32 32 0 0 0-64 0v64a96.109 96.109 0 0 0 96 96h256a96.109 96.109 0 0 0 96-96v-64a32 32 0 0 0-32-32zM768-96H256a96.109 96.109 0 0 0-96 96V576a32 32 0 0 0 64 0v-576a32.036 32.036 0 0 1 32-32h512a32.036 32.036 0 0 1 32 32V576a32 32 0 0 0 64 0v-576a96.109 96.109 0 0 0-96-96z"  horiz-adv-x="1024" />

    
    <glyph glyph-name="exclamation-circle" unicode="&#59077;" d="M510.450454 117.92795100000001m-48.985649 0a48.985649 48.985649 0 1 1 97.971298 0 48.985649 48.985649 0 1 1-97.971298 0ZM533.243776 698.457874h-45.686615c-18.19467 0-32.690423-15.39549-31.690716-33.790101L476.560383 265.88460399999997c0.899736-17.094992 14.795665-30.491067 31.690715-30.491067 16.79508 0 30.691008 13.196134 31.690716 30.091184l24.992678 398.783169c1.199649 18.594552-13.396075 34.189983-31.690716 34.189984zM983.511862 583.391584c-25.792444 60.982134-62.681636 115.666113-109.667871 162.652348-46.986235 46.986235-101.770185 83.875427-162.652348 109.667871C648.010153 882.403983 581.029776 896 511.950015 896S375.789905 882.403983 312.708386 855.711803c-60.982134-25.792444-115.666113-62.681636-162.652348-109.667871-46.986235-46.986235-83.875427-101.770185-109.66787-162.652348C13.596017 520.210095 0.099971 453.229718 0.099971 384.149956c0-69.079762 13.496046-136.160109 40.188226-199.241628C66.08064 123.92619300000001 102.969833 69.14224300000001 149.956068 22.15600900000004c46.986235-46.986235 101.770185-83.875427 162.652348-109.667871 63.081519-26.69218 130.161867-40.188226 199.241628-40.188226 110.067754 0 214.837059 34.389925 303.211169 99.470858 13.296105 9.79713 16.195255 28.591624 6.398125 41.887728-9.79713 13.296105-28.591624 16.195255-41.887728 6.398126-77.977155-57.383189-170.550034-87.774285-267.621595-87.774285-60.982134 0-120.164795 11.896515-175.848482 35.489603-53.784243 22.793322-102.170067 55.383774-143.657913 96.871619-41.487845 41.487845-74.078297 89.87367-96.87162 143.657913C71.978912 263.88518999999997 60.082398 323.067851 60.082398 384.149956S71.978912 504.314752 95.572 559.9984380000001c22.793322 53.784243 55.383774 102.170067 96.87162 143.657913 41.487845 41.487845 89.87367 74.078297 143.657913 96.871619 55.683686 23.593088 114.866348 35.489603 175.848482 35.489603S632.11481 824.121058 687.798497 800.52797c53.784243-22.793322 102.170067-55.383774 143.657912-96.871619 41.487845-41.487845 74.078297-89.87367 96.87162-143.657913 23.593088-55.683686 35.489603-114.866348 35.489603-175.848482 0-80.276481-21.293762-159.153373-61.68193-228.033193-8.39754-14.295812-3.598946-32.690423 10.696867-40.987992 14.295812-8.39754 32.690423-3.598946 40.987991 10.696866 45.686615 78.077126 69.879527 167.450942 69.879528 258.324319 0.099971 69.079762-13.496046 136.060139-40.188226 199.241628z"  horiz-adv-x="1024" />

    
    <glyph glyph-name="weibo" unicode="&#59522;" d="M457.3 353c-68.1 17.7-145-16.2-174.6-76.2-30.1-61.2-1-129.1 67.8-151.3 71.2-23 155.2 12.2 184.4 78.3 28.7 64.6-7.2 131-77.6 149.2z m-52-156.2c-13.8-22.1-43.5-31.7-65.8-21.6-22 10-28.5 35.7-14.6 57.2 13.7 21.4 42.3 31 64.4 21.7 22.4-9.5 29.6-35 16-57.3z m45.5 58.5c-5-8.6-16.1-12.7-24.7-9.1-8.5 3.5-11.2 13.1-6.4 21.5 5 8.4 15.6 12.4 24.1 9.1 8.7-3.2 11.8-12.9 7-21.5zM785.3 452.5c15-4.8 31 3.4 35.9 18.3 11.8 36.6 4.4 78.4-23.2 109-27.6 30.6-68.4 42.3-106 34.3-15.4-3.3-25.2-18.4-21.9-33.8 3.3-15.3 18.4-25.2 33.8-21.8 18.4 3.9 38.3-1.8 51.9-16.7 13.5-15 17.2-35.4 11.3-53.3-4.9-15.1 3.2-31.1 18.2-36zM885.1 658.5c-56.7 62.9-140.4 86.9-217.7 70.5-17.9-3.8-29.3-21.4-25.4-39.3 3.8-17.9 21.4-29.3 39.3-25.5 55 11.7 114.4-5.4 154.8-50.1 40.3-44.7 51.2-105.7 34-159.1-5.6-17.4 3.9-36 21.3-41.7 17.4-5.6 36 3.9 41.6 21.2v0.1c24.1 75.4 8.9 161.1-47.9 223.9zM729 397c-12.2 3.6-20.5 6.1-14.1 22.1 13.8 34.7 15.2 64.7 0.3 86-28 40.1-104.8 37.9-192.8 1.1 0 0-27.6-12.1-20.6 9.8 13.5 43.5 11.5 79.9-9.6 101-47.7 47.8-174.6-1.8-283.5-110.6C127.3 424.9 80 338.5 80 263.8 80 120.9 263.2 34 442.5 34c235 0 391.3 136.5 391.3 245 0 65.5-55.2 102.6-104.8 118zM443 85.2c-143-14.1-266.5 50.5-275.8 144.5-9.3 93.9 99.2 181.5 242.2 195.6 143 14.2 266.5-50.5 275.8-144.4C694.4 187 586 99.4 443 85.2z"  horiz-adv-x="1024" />

    
    <glyph glyph-name="ppt" unicode="&#58940;" d="M765.9 489.5c-4 63.6-55.6 119.2-119.2 119.2v-123.2c39.8 4 79.5 4 119.2 4z m0 0M881.2 108.1h-298v75.5h218.5v35.8H583.2V267h218.5v35.8H583.2v55.6c35.8-11.9 75.5-11.9 107.3 11.9 35.8 19.9 51.6 59.6 55.6 99.3H626.9V588.8c-15.9-4-27.8-7.9-43.7-7.9v91.4h298v-564.2zM380.6 354.4c-19.9-7.9-43.7-7.9-67.5-7.9v-107.3c-15.9 0-35.8 4-55.6 4v298c47.7-4 107.3 19.9 151-15.9 39.6-51.7 27.7-139.1-27.9-170.9zM909 664.3c4 19.9-15.9 39.7-35.8 35.8h-290v83.4h-51.6c-139-23.8-278.1-47.7-417.1-75.5v-647.6c139-23.8 274.1-47.7 413.2-75.5h55.6v91.4h270.1c15.9 0 31.8 0 47.7 7.9 7.9 23.8 7.9 43.7 7.9 63.6V664.3z m0 0M313.1 489.5v-91.4c19.9 4 39.7 0 51.6 19.9 7.9 19.9 7.9 43.7 0 59.6-11.9 15.9-35.8 11.9-51.6 11.9z m0 0"  horiz-adv-x="1024" />

    
    <glyph glyph-name="menu" unicode="&#58910;" d="M55.466667 772.266667h917.333333v-42.666667H55.466667zM55.466667 405.333333h917.333333v-42.666666H55.466667zM55.466667 38.39999999999998h917.333333v-42.666667H55.466667z"  horiz-adv-x="1024" />

    
    <glyph glyph-name="book" unicode="&#61254;" d="M960 176V848c0 26.6-21.4 48-48 48H256C150 896 64 810 64 704v-640c0-106 86-192 192-192h656c26.6 0 48 21.4 48 48v32c0 15-7 28.6-17.8 37.4-8.4 30.8-8.4 118.6 0 149.4 10.8 8.6 17.8 22.2 17.8 37.2zM320 628c0 6.6 5.4 12 12 12h424c6.6 0 12-5.4 12-12v-40c0-6.6-5.4-12-12-12H332c-6.6 0-12 5.4-12 12v40z m0-128c0 6.6 5.4 12 12 12h424c6.6 0 12-5.4 12-12v-40c0-6.6-5.4-12-12-12H332c-6.6 0-12 5.4-12 12v40z m506.8-500H256c-35.4 0-64 28.6-64 64 0 35.2 28.8 64 64 64h570.8c-3.8-34.2-3.8-93.8 0-128z"  horiz-adv-x="1024" />

    
    <glyph glyph-name="book-reader" unicode="&#61257;" d="M703.998185 704.000495c0 106.039727-85.959778 191.999505-191.999505 191.999505s-191.999505-85.959778-191.999505-191.999505 85.959778-191.999505 191.999505-191.999505 191.999505 85.959778 191.999505 191.999505zM467.178796 413.801243c-118.659694 72.639813-310.859199 92.599761-407.57895 98.099747C27.09993 513.740986 0 488.981049 0 457.72113v-445.598851c0-28.659926 23.17994-52.559864 52.979863-54.099861 87.319775-4.579988 263.979319-21.359945 386.079005-82.859786 18.739952-9.439976 40.959894 3.419991 40.959894 23.739939V390.881302c-0.02 9.339976-4.639988 17.899954-12.839966 22.919941z m497.218718 98.099747c-96.699751-5.479986-288.919255-25.459934-407.55895-98.099747-8.199979-5.019987-12.819967-13.919964-12.819967-23.25994v-491.578733c0-20.379947 22.279943-33.259914 41.079895-23.799938 122.079685 61.439842 298.63923 78.219798 385.939005 82.799786 29.799923 1.559996 52.979863 25.459934 52.979863 54.119861V457.72113c-0.02 31.259919-27.11993 56.019856-59.619846 54.17986z"  horiz-adv-x="1024" />

    
    <glyph glyph-name="plus-circle" unicode="&#58986;" d="M471.999926 184.00011099999995V344.000086H309.999952a39.999994 39.999994 0 1 0 0 79.999988H471.999926V586.000048a39.999994 39.999994 0 1 0 79.999988 0V424.000074h159.999975a39.999994 39.999994 0 1 0 0-79.999988H551.999914v-159.999975a39.999994 39.999994 0 1 0-79.999988 0z m402.039937 562.039912C777.335879 842.744008 648.759899 896 511.99992 896 375.239941 896 246.663961 842.744008 149.959977 746.040023 53.255992 649.336039 0 520.760059 0 384.00008c0-136.759979 53.255992-265.335959 149.959977-362.039943C246.663961-74.74384799999996 375.239941-127.99983999999995 511.99992-127.99983999999995a511.16792 511.16792 0 0 1 264.919959 73.791988 39.999994 39.999994 0 0 1-41.439994 68.42399A431.247933 431.247933 0 0 0 511.99992-47.99985300000003c-238.199963 0-431.999933 193.79997-431.999932 431.999933s193.79997 431.999933 431.999932 431.999932 431.999933-193.79997 431.999933-431.999932c0-85.175987-25.327996-168.079974-73.247989-239.775963a39.999994 39.999994 0 1 1 66.50399-44.455993C993.999845 184.64011100000005 1023.99984 282.936096 1023.99984 384.00008c0 136.759979-53.255992 265.335959-149.959977 362.039943z"  horiz-adv-x="1024" />

    
    <glyph glyph-name="word" unicode="&#60885;" d="M1006.933333 810.666667H580.266667V861.866667c0 6.826667-3.413333 10.24-6.826667 13.653333s-10.24 3.413333-13.653333 3.413333l-546.133334-136.533333c-6.826667-3.413333-13.653333-10.24-13.653333-17.066667v-716.8c0-6.826667 6.826667-13.653333 13.653333-17.066666l546.133334-102.4h3.413333c3.413333 0 6.826667 0 10.24 3.413333 3.413333 3.413333 6.826667 6.826667 6.826667 13.653333v51.2h426.666666c10.24 0 17.066667 6.826667 17.066667 17.066667V793.6c0 10.24-6.826667 17.066667-17.066667 17.066667zM477.866667 513.7066669999999l-102.4-307.2c-3.413333-6.826667-10.24-10.24-17.066667-10.24s-13.653333 6.826667-17.066667 13.653333l-51.2 187.733333c-3.413333 13.653333-27.306667 13.653333-34.133333 0L204.8 209.91999999999996c-3.413333-6.826667-6.826667-13.653333-17.066667-13.653333s-13.653333 6.826667-13.653333 10.24l-102.4 307.2c-3.413333 10.24 3.413333 17.066667 10.24 20.48h6.826667c6.826667 0 13.653333-3.413333 17.066666-10.24l68.266667-201.386667c3.413333-6.826667 10.24-10.24 17.066667-10.24s13.653333 6.826667 17.066666 13.653333l54.613334 197.973334c3.413333 13.653333 27.306667 13.653333 34.133333 0l54.613333-197.973334c3.413333-6.826667 6.826667-13.653333 17.066667-13.653333 6.826667 0 13.653333 3.413333 17.066667 10.24l68.266666 201.386667c3.413333 10.24 13.653333 13.653333 20.48 10.24 0 0 6.826667-10.24 3.413334-20.48z m512-522.24H580.266667v102.4h324.266666c10.24 0 17.066667 6.826667 17.066667 17.066666s-6.826667 17.066667-17.066667 17.066667H580.266667v102.4h324.266666c10.24 0 17.066667 6.826667 17.066667 17.066667s-6.826667 17.066667-17.066667 17.066666H580.266667v102.4h324.266666c10.24 0 17.066667 6.826667 17.066667 17.066667s-6.826667 17.066667-17.066667 17.066667H580.266667v102.4h324.266666c10.24 0 17.066667 6.826667 17.066667 17.066666s-6.826667 17.066667-17.066667 17.066667H580.266667v102.4h324.266666c10.24 0 17.066667 6.826667 17.066667 17.066667s-6.826667 17.066667-17.066667 17.066666H580.266667v102.4h409.6v-785.066666z"  horiz-adv-x="1024" />

    
    <glyph glyph-name="excel" unicode="&#60894;" d="M1006.933333 810.666667H580.266667V861.866667c0 6.826667-3.413333 10.24-6.826667 13.653333s-10.24 3.413333-13.653333 3.413333l-546.133334-136.533333c-6.826667-3.413333-13.653333-10.24-13.653333-17.066667v-716.8c0-6.826667 6.826667-13.653333 13.653333-17.066666l546.133334-102.4h3.413333c3.413333 0 6.826667 0 10.24 3.413333 3.413333 3.413333 6.826667 6.826667 6.826667 13.653333v51.2h426.666666c10.24 0 17.066667 6.826667 17.066667 17.066667V793.6c0 10.24-6.826667 17.066667-17.066667 17.066667z m-17.066666-682.666667h-238.933334v102.4h238.933334v-102.4zM174.08 223.57333300000005l92.16 153.6c3.413333 6.826667 3.413333 13.653333 0 17.066667l-92.16 153.6C170.666667 551.253333 170.666667 554.666667 170.666667 558.0799999999999s3.413333 6.826667 6.826666 10.24c6.826667 3.413333 17.066667 3.413333 23.893334-6.826667L273.066667 438.613333c6.826667-10.24 23.893333-10.24 30.72 0L375.466667 561.493333c3.413333 6.826667 17.066667 10.24 23.893333 6.826667 6.826667 0 10.24-6.826667 10.24-10.24 0-3.413333 0-10.24-3.413333-13.653333l-92.16-153.6c-3.413333-6.826667-3.413333-13.653333 0-17.066667l92.16-153.6c3.413333-3.413333 3.413333-6.826667 3.413333-10.24s-3.413333-6.826667-6.826667-10.24c-6.826667-3.413333-17.066667-3.413333-23.893333 6.826667L307.2 329.386667c-3.413333 6.826667-10.24 6.826667-13.653333 6.826666s-10.24-3.413333-13.653334-6.826666l-71.68-122.88c-3.413333-6.826667-17.066667-10.24-23.893333-6.826667-10.24 0-13.653333 3.413333-13.653333 10.24 0 3.413333 0 6.826667 3.413333 13.653333zM580.266667 366.93333299999995h136.533333v-102.4h-136.533333v102.4z m0 34.133334v102.4h136.533333v-102.4h-136.533333z m170.666666 102.4h238.933334v-102.4h-238.933334v102.4z m238.933334 34.133333h-238.933334v102.4h238.933334v-102.4z m-273.066667 0h-136.533333v102.4h136.533333v-102.4z m-136.533333-307.2h136.533333v-102.4h-136.533333v102.4z m170.666666 34.133333v102.4h238.933334v-102.4h-238.933334z m238.933334 512v-102.4h-238.933334v102.4h238.933334z m-273.066667 0v-102.4h-136.533333v102.4h136.533333z m-136.533333-682.666666h136.533333v-102.4h-136.533333v102.4z m409.6-102.4h-238.933334v102.4h238.933334v-102.4z"  horiz-adv-x="1024" />

    
    <glyph glyph-name="ellipsis-h" unicode="&#58927;" d="M192 384c0-35.2 28.8-64 64-64s64 28.8 64 64-28.8 64-64 64-64-28.8-64-64z m255.99999999 0c0-35.2 28.8-64 64.00000001-64.00000001s64 28.8 64.00000001 64.00000001-28.8 64-64.00000001 64.00000001-64-28.8-64.00000001-64.00000001z m256.00000001 0c0-35.2 28.8-64 64-64s64 28.8 64 64-28.8 64-64 64-64-28.8-64-64z"  horiz-adv-x="1024" />

    
    <glyph glyph-name="loading" unicode="&#58885;" d="M843.307 153.76c0-3.217 2.607-5.824 5.824-5.824s5.824 2.607 5.824 5.824a5.823 5.823 0 0 1-5.824 5.824 5.823 5.823 0 0 1-5.824-5.824zM714.731 21.088c0-6.398 5.186-11.584 11.584-11.584s11.584 5.186 11.584 11.584-5.186 11.584-11.584 11.584-11.584-5.186-11.584-11.584zM541.419-47.2c0-9.614 7.794-17.408 17.408-17.408s17.408 7.794 17.408 17.408-7.794 17.408-17.408 17.408-17.408-7.794-17.408-17.408z m-186.56 9.152c0-12.795 10.373-23.168 23.168-23.168s23.168 10.373 23.168 23.168-10.373 23.168-23.168 23.168-23.168-10.373-23.168-23.168zM189.355 46.88c0-16.012 12.98-28.992 28.992-28.992s28.992 12.98 28.992 28.992-12.98 28.992-28.992 28.992-28.992-12.98-28.992-28.992zM74.731 191.264c0-19.228 15.588-34.816 34.816-34.816s34.816 15.588 34.816 34.816-15.588 34.816-34.816 34.816-34.816-15.588-34.816-34.816z m-43.008 177.28c0-22.41 18.166-40.576 40.576-40.576s40.576 18.166 40.576 40.576-18.166 40.576-40.576 40.576-40.576-18.166-40.576-40.576z m35.392 176.128c0-25.626 20.774-46.4 46.4-46.4s46.4 20.774 46.4 46.4c0 25.626-20.774 46.4-46.4 46.4-25.626 0-46.4-20.774-46.4-46.4z m106.176 142.016c0-28.843 23.381-52.224 52.224-52.224s52.224 23.381 52.224 52.224c0 28.843-23.381 52.224-52.224 52.224-28.843 0-52.224-23.381-52.224-52.224z m155.904 81.344c0-32.024 25.96-57.984 57.984-57.984s57.984 25.96 57.984 57.984-25.96 57.984-57.984 57.984-57.984-25.96-57.984-57.984z m175.104 5.056c0-35.24 28.568-63.808 63.808-63.808s63.808 28.568 63.808 63.808c0 35.24-28.568 63.808-63.808 63.808-35.24 0-63.808-28.568-63.808-63.808z m160.32-72.128c0-38.421 31.147-69.568 69.568-69.568s69.568 31.147 69.568 69.568-31.147 69.568-69.568 69.568-69.568-31.147-69.568-69.568z m113.92-135.488c0-41.638 33.754-75.392 75.392-75.392s75.392 33.754 75.392 75.392-33.754 75.392-75.392 75.392-75.392-33.754-75.392-75.392z m45.312-175.488c0-44.854 36.362-81.216 81.216-81.216s81.216 36.362 81.216 81.216c0 44.854-36.362 81.216-81.216 81.216-44.854 0-81.216-36.362-81.216-81.216z"  horiz-adv-x="1024" />

    


  </font>
</defs>
</svg>
